<?xml version="1.0" standalone="no"?><!DOCTYPE svg PUBLIC "-//W3C//DTD SVG 1.1//EN" "http://www.w3.org/Graphics/SVG/1.1/DTD/svg11.dtd"><svg t="1566644621425" class="icon" viewBox="0 0 1024 1024" version="1.1" xmlns="http://www.w3.org/2000/svg" p-id="1588" xmlns:xlink="http://www.w3.org/1999/xlink" width="200" height="200"><defs><style type="text/css"></style></defs><path d="M830.94528 947.99872H228.91008c-33.536 0-60.81024-27.27936-60.81024-60.83072V285.15328c0-33.52064 27.27424-60.8 60.81024-60.8h602.0352c33.52064 0 60.8 27.27936 60.8 60.8v602.01984c0.00512 33.536-27.27936 60.8256-60.8 60.8256zM237.34784 878.74048h585.14432V293.6064H237.34784v585.13408z" fill="#D24C59" p-id="1589"></path><path d="M760.05888 306.12992a34.6368 34.6368 0 0 1-69.27872 0c0-88.70912-72.16128-160.8704-160.88064-160.8704-88.70912 0-160.87552 72.16128-160.87552 160.8704a34.6368 34.6368 0 0 1-69.26336 0c0-126.90432 103.22944-230.12864 230.12864-230.12864 126.94016-0.00512 230.1696 103.22432 230.1696 230.12864zM482.39616 621.32224A151.296 151.296 0 0 1 476.16 643.93216l-12.78464 34.73408 40.05888-0.2304-12.51328-32.65536c-3.82464-9.92256-6.66624-18.06848-8.5248-24.45824z" fill="#D24C59" p-id="1590"></path><path d="M719.46752 519.92064l-378.94144-0.24576c-33.19296-0.0256-60.1344 26.86976-60.14976 60.06272l-0.06144 177.37728c-0.01536 33.18272 26.85952 60.12416 60.04224 60.13952l378.95168 0.24576c33.18272 0.02048 60.11392-26.86976 60.14464-60.0576l0.06656-177.37216c0.02048-33.19808-26.85952-60.12928-60.05248-60.14976z m-303.79008 191.93344c-3.56864 5.58592-8.72448 9.94304-15.44192 13.07136-6.72768 3.14368-14.31552 4.72576-22.74816 4.76672-10.69568 0.07168-19.6608-1.43872-26.91072-4.52096-7.2448-3.07712-12.93312-7.7312-17.08544-13.97248-4.15232-6.24128-6.35904-13.312-6.61504-21.20192l14.74048-1.3824c0.73728 5.888 2.38592 10.76224 4.96128 14.52032s6.5536 6.8096 11.94496 9.11872c5.38112 2.28864 11.43808 3.44064 18.15552 3.38944 5.9648-0.02048 11.22304-0.9472 15.77984-2.7392 4.56704-1.80224 7.95648-4.24448 10.1632-7.35232a16.8448 16.8448 0 0 0 3.28704-10.13248c-0.02048-3.712-1.11104-6.94272-3.2768-9.7024-2.17088-2.74944-5.72416-5.0688-10.68032-6.912-3.17952-1.21856-10.20416-3.0976-21.0688-5.65248-10.87488-2.56-18.48832-4.97664-22.85568-7.26016-5.6576-2.90816-9.89184-6.55872-12.672-10.91584-2.80576-4.37248-4.21888-9.27232-4.2496-14.6944-0.03072-5.96992 1.63328-11.5456 4.992-16.74752 3.34848-5.20192 8.27904-9.1648 14.76096-11.89376 6.49216-2.73408 13.70624-4.11136 21.66272-4.15744 8.76032-0.0512 16.49152 1.31584 23.20384 4.096 6.7072 2.7904 11.8784 6.91712 15.50848 12.37504 3.6352 5.45792 5.60128 11.65824 5.90848 18.59072l-14.98624 1.21856c-0.84992-7.47008-3.60448-13.10208-8.27904-16.90112-4.66432-3.77856-11.55584-5.65248-20.62848-5.59616-9.46176 0.04608-16.34304 1.81248-20.64384 5.30944-4.30592 3.5072-6.44608 7.68512-6.42048 12.57472 0.02048 4.23936 1.57696 7.74144 4.65408 10.4448 3.02592 2.71872 10.89536 5.49376 23.62368 8.28928 12.72832 2.80576 21.45792 5.26336 26.19904 7.39328 6.89664 3.11808 11.99616 7.12704 15.29856 11.96032 3.30752 4.84864 4.97152 10.43968 5.0176 16.768 0.03584 6.32832-1.73568 12.27264-5.2992 17.84832z m106.64448 14.99648l-13.97248-35.70688-49.42336 0.2816-12.77952 35.8656-16.59904 0.1024 44.71296-118.43072 16.84992-0.10752 49.03936 117.89312-17.82784 0.1024z m29.68064-0.15872l-0.67072-118.1696 15.6416-0.09216 0.5888 104.22784 58.20928-0.3328 0.07168 13.94688-73.84064 0.41984z m92.76928-0.52736l-0.66048-118.17984 85.43232-0.4864 0.09728 13.95712-69.80096 0.39424 0.19968 36.18816 65.38752-0.36864 0.08192 13.8752-65.3824 0.37376 0.2304 40.21248 72.5504-0.41472 0.07168 13.95712-88.20736 0.49152z" fill="#D24C59" p-id="1591"></path></svg>