<?xml version="1.0" standalone="no"?><!DOCTYPE svg PUBLIC "-//W3C//DTD SVG 1.1//EN" "http://www.w3.org/Graphics/SVG/1.1/DTD/svg11.dtd"><svg t="1566829382399" class="icon" viewBox="0 0 1024 1024" version="1.1" xmlns="http://www.w3.org/2000/svg" p-id="21350" xmlns:xlink="http://www.w3.org/1999/xlink" width="48" height="48"><defs><style type="text/css"></style></defs><path d="M517.973333 960A448 448 0 1 1 960 506.026667 448 448 0 0 1 517.973333 960zM512 775.466667a52.693333 52.693333 0 1 0-52.693333-52.693334A52.693333 52.693333 0 0 0 512 775.466667z m0-553.386667c-98.133333 0-177.493333 52.48-183.253333 147.2a52.693333 52.693333 0 1 0 104.32 10.88 79.146667 79.146667 0 0 1 158.08 0c2.56 55.253333-52.48 79.786667-78.933334 105.386667-61.866667 51.626667-52.693333 79.146667-52.693333 79.146666a52.693333 52.693333 0 0 0 105.386667 0 522.453333 522.453333 0 0 1 79.146666-79.573333 157.653333 157.653333 0 0 0 52.693334-105.386667c0-101.973333-82.56-158.08-184.533334-158.08z m0 0" fill="#FFD000" p-id="21351"></path></svg>