<?xml version="1.0" standalone="no"?><!DOCTYPE svg PUBLIC "-//W3C//DTD SVG 1.1//EN" "http://www.w3.org/Graphics/SVG/1.1/DTD/svg11.dtd"><svg t="1566644844753" class="icon" viewBox="0 0 1024 1024" version="1.1" xmlns="http://www.w3.org/2000/svg" p-id="1826" xmlns:xlink="http://www.w3.org/1999/xlink" width="200" height="200"><defs><style type="text/css"></style></defs><path d="M748.07808 398.75584H103.89504v249.84576c0 17.5616 5.75488 34.33984 15.9744 46.70976 10.21952 12.3904 24.10496 19.36896 38.53824 19.36896h707.18464c14.42816 0 28.30848-6.97856 38.528-19.36896 10.21952-12.36992 15.9744-29.19936 15.9744-46.70976V398.86848l-172.01664-0.11264z m-504.38656 186.7264h-89.6v-26.83904h89.6v26.83904z m115.2-56.92416h-204.8v-26.83904h204.8v26.83904z m141.04064 114.38592c-6.83008 0-12.76416-6.43584-17.78688-19.30752l-59.43296-153.1392h45.952l40.23808 105.0624 66.56-105.0624h46.30016l-99.30752 153.35424c-8.17152 12.73344-15.6928 19.09248-22.52288 19.09248z m108.27776-1.28512l24.0384-169.8816h42.33216l-24.02816 169.8816h-42.3424z m260.992-106.25024c-2.71872 19.11808-11.49952 34.69824-26.42944 46.62784-14.32064 11.32032-30.83264 16.96256-49.60256 16.96256h-71.12192l-6.03136 42.65984h-42.34752l12.26752-86.49216h117.48352a23.85408 23.85408 0 0 0 15.44704-5.48864c4.48-3.65056 7.14752-8.52992 8.0128-14.57152 0.83456-6.00064-0.46592-10.80832-3.94752-14.32064-3.46112-3.47136-8.0896-5.20704-13.87008-5.20704h-117.5296l34.16064-43.81696h85.57568c18.65728 0 33.5104 5.64224 44.65664 16.95744 11.53536 11.98592 15.97952 27.4944 13.27616 46.68928zM904.12032 276.38784a54.46144 54.46144 0 0 0-38.528-15.9744l-402.64192 0.4864-316.24192-0.4864c-2.51904 0-5.00224 0.32768-7.44448 0.87552l-35.37408 0.04096v98.38592H920.09472v-44.8c0-14.42304-5.75488-28.3136-15.9744-38.528z" fill="#072F61" p-id="1827"></path></svg>