<?xml version="1.0" standalone="no"?><!DOCTYPE svg PUBLIC "-//W3C//DTD SVG 1.1//EN" "http://www.w3.org/Graphics/SVG/1.1/DTD/svg11.dtd"><svg t="1566829423850" class="icon" viewBox="0 0 1024 1024" version="1.1" xmlns="http://www.w3.org/2000/svg" p-id="22153" xmlns:xlink="http://www.w3.org/1999/xlink" width="48" height="48"><defs><style type="text/css"></style></defs><path d="M713.70849 97.117898 713.70849 97.117898c8.181333 0 23.293519 1.338485 32.929993 10.32209 2.201132 2.023076 8.864902 8.239662 8.864902 23.560602 0 17.222243-9.339716 44.323485-35.546587 68.74571-32.099069 29.894867-85.019349 52.473095-123.094526 52.473095-11.006681 0-16.182564-2.023076-17.045211-2.023076-0.074701 0-0.12075 0.028653-0.12075 0.028653-7.048533-14.337543 8.375761-76.598562 52.713572-117.947296C656.026766 110.265336 686.429193 97.117898 713.70849 97.117898M713.70849 24.238031c-43.952025 0-92.423993 18.799158-131.006729 54.704926-66.306148 61.844533-104.993263 175.806051-53.396117 223.877907 16.598027 15.497972 40.528042 22.25077 67.556629 22.25077 56.994062 0 127.764895-30.073946 172.800601-71.988568 66.277496-61.784158 78.265528-150.906965 26.65508-198.979844C774.721075 33.994232 745.389026 24.207331 713.70849 24.238031L713.70849 24.238031 713.70849 24.238031zM341.257779 97.117898c27.27725 0 57.694003 13.147438 81.34261 35.160801 44.681642 41.645492 59.969836 104.502076 53.78395 116.936269-0.074701 0.029676-4.818749 3.00545-18.250666 3.00545-38.092573 0-90.952478-22.578228-123.019825-52.473095-26.237571-24.423249-35.577287-51.55212-35.577287-68.74571 0-15.319917 6.633071-21.538549 8.835226-23.560602C318.041008 98.456383 333.135798 97.117898 341.257779 97.117898M341.257779 24.238031c-31.66621 0-60.966537 9.757225-82.592067 29.866215-51.55212 48.071855-39.564088 137.195685 26.743084 198.979844 44.978401 41.914622 115.747187 71.988568 172.726923 71.988568 27.03882 0 50.971905-6.753821 67.569932-22.25077 51.626821-48.072879 12.910031-162.033373-53.396117-223.877907C433.726797 43.037189 385.238456 24.238031 341.257779 24.238031L341.257779 24.238031 341.257779 24.238031zM956.118472 610.79305 956.118472 360.797299c0-39.295981-32.157397-71.422679-71.424726-71.422679L563.246663 289.37462l0 321.419454L956.118472 610.79305 956.118472 610.79305zM563.246663 682.246429l0 321.450153 321.447083 0c39.267329 0 71.424726-32.128745 71.424726-71.452355L956.118472 682.246429 563.246663 682.246429 563.246663 682.246429zM491.794307 610.79305 491.794307 289.37462 170.344155 289.37462c-39.311331 0-71.423703 32.126698-71.423703 71.422679l0 249.996774L491.794307 610.79305 491.794307 610.79305zM98.920452 682.246429l0 249.997797c0 39.323611 32.113395 71.452355 71.423703 71.452355l321.449129 0L491.793284 682.246429 98.920452 682.246429 98.920452 682.246429z" p-id="22154" fill="#FFD000"></path></svg>