<?xml version="1.0" standalone="no"?><!DOCTYPE svg PUBLIC "-//W3C//DTD SVG 1.1//EN" "http://www.w3.org/Graphics/SVG/1.1/DTD/svg11.dtd"><svg t="1566829251540" class="icon" viewBox="0 0 1024 1024" version="1.1" xmlns="http://www.w3.org/2000/svg" p-id="17350" width="48" height="48" xmlns:xlink="http://www.w3.org/1999/xlink"><defs><style type="text/css"></style></defs><path d="M224.130924 649.044326C240.276885 641.857754 247.539903 622.942998 240.353329 606.797037 223.897117 569.825129 215.295996 529.797624 215.295996 488.533325 215.295996 324.90588 350.859994 192 518.399988 192 685.939981 192 821.503981 324.90588 821.503981 488.533325 821.503981 652.160768 685.939981 785.06665 518.399988 785.06665 500.726876 785.06665 486.399988 799.393536 486.399988 817.06665 486.399988 834.739763 500.726876 849.06665 518.399988 849.06665 664.836435 849.06665 791.365984 764.819238 850.26768 642.872749 911.832179 638.814821 960.487603 588.570192 960.487603 527.184305 960.487603 475.453533 925.934099 431.634922 878.220154 416.702063 844.306259 251.910444 695.992582 128 518.399988 128 340.199345 128 191.47845 252.760399 158.235501 418.396166 104.440961 429.283966 64 475.988308 64 531.952938 64 595.991978 116.952177 647.905875 182.271997 647.905875 186.466296 647.905875 190.609601 647.691827 194.691168 647.274266 203.32476 652.428083 214.246668 653.443814 224.130924 649.044326Z" p-id="17351" fill="#FFD000"></path><path d="M317.273012 577.165416C325.481119 591.033144 341.333974 609.945523 365.983544 628.466388 406.310384 658.76663 457.246751 676.900211 518.755546 676.900211 580.26434 676.900211 631.200707 658.76663 671.527546 628.466388 696.177114 609.945523 712.029971 591.033142 720.238074 577.165416 729.23991 561.956672 724.208218 542.330122 708.999469 533.328287 693.790726 524.326453 674.164179 529.358147 665.162342 544.566891 660.935814 551.707677 650.373837 564.308068 633.082804 577.299974 603.508644 599.521014 565.927112 612.900209 518.755546 612.900209 471.583978 612.900209 434.002445 599.521014 404.428283 577.299973 387.137251 564.308068 376.57527 551.707676 372.348742 544.56689 363.346908 529.358147 343.720356 524.326453 328.511613 533.328288 313.30287 542.330123 308.271178 561.956674 317.273012 577.165416L317.273012 577.165416Z" p-id="17352" fill="#FFD000"></path><path d="M480 912 544 912C588.18278 912 624 876.182778 624 832 624 787.817222 588.18278 752 544 752L480 752C435.81722 752 400 787.817222 400 832 400 876.182778 435.81722 912 480 912L480 912Z" p-id="17353" fill="#FFD000"></path></svg>