<?xml version="1.0" standalone="no"?><!DOCTYPE svg PUBLIC "-//W3C//DTD SVG 1.1//EN" "http://www.w3.org/Graphics/SVG/1.1/DTD/svg11.dtd"><svg t="1566826674952" class="icon" viewBox="0 0 1024 1024" version="1.1" xmlns="http://www.w3.org/2000/svg" p-id="13148" xmlns:xlink="http://www.w3.org/1999/xlink" width="64" height="64"><defs><style type="text/css"></style></defs><path d="M512 1024A512 512 0 1 1 512 0a512 512 0 0 1 0 1024z m42.688-486.848V298.56A42.816 42.816 0 0 0 512 256a42.496 42.496 0 0 0-42.688 42.56v256.256a41.984 41.984 0 0 0 12.224 29.824l121.28 121.28a42.368 42.368 0 0 0 60.032-0.32 42.688 42.688 0 0 0 0.256-60.032L554.688 537.152z" p-id="13149" fill="#FF4D39"></path></svg>