<?xml version="1.0" standalone="no"?><!DOCTYPE svg PUBLIC "-//W3C//DTD SVG 1.1//EN" "http://www.w3.org/Graphics/SVG/1.1/DTD/svg11.dtd"><svg t="1566645548977" class="icon" viewBox="0 0 1024 1024" version="1.1" xmlns="http://www.w3.org/2000/svg" p-id="1469" xmlns:xlink="http://www.w3.org/1999/xlink" width="200" height="200"><defs><style type="text/css"></style></defs><path d="M810.97216 519.00928c-99.49696 0-180.13696 80.64-180.13696 180.13184 0 99.50208 80.64 180.14208 180.13696 180.14208 99.51232 0 180.15232-80.64 180.15232-180.14208-0.02048-99.49184-80.66048-180.13184-180.15232-180.13184z m79.6672 244.992H867.328v23.84384a8.9088 8.9088 0 0 1-8.85248 8.92928 8.89856 8.89856 0 0 1-8.86784-8.92928v-23.84384h-23.30112c-4.91008 0-8.89856-3.99872-8.89856-8.93952s3.99872-8.93952 8.89856-8.93952h23.30112v-23.83872a8.9088 8.9088 0 0 1 8.86784-8.92416c4.91008 0 8.85248 4.00384 8.85248 8.92416v23.83872h23.31136c5.16096 0 8.87808 3.79392 8.87808 8.93952-0.05632 4.9408-3.9936 8.93952-8.87808 8.93952z m11.79648-57.51296l-11.69408 11.66848a7.82336 7.82336 0 0 1-11.02848 0 7.808 7.808 0 0 1 0-11.02848l11.65824-11.65824a44.37504 44.37504 0 0 0 13.0304-31.6416c0-11.9808-4.63872-23.23968-13.0304-31.63136-8.42752-8.42752-19.65056-13.02016-31.63136-13.02016-11.99104 0-23.25504 4.62336-31.6416 13.02016l-11.62752 11.64288a7.71072 7.71072 0 0 1-5.49888 2.27328c-2.07872 0-4.03968-0.83456-5.51936-2.27328l-11.65824-11.64288c-8.4224-8.42752-19.64544-13.02016-31.63136-13.02016-11.9808 0-23.24992 4.62336-31.6416 13.02016-8.42752 8.39168-13.02016 19.65056-13.02016 31.63136 0 11.99104 4.62336 23.24992 13.02016 31.6416l85.95968 85.94944a7.81312 7.81312 0 0 1 0 11.01824 7.83872 7.83872 0 0 1-11.02848 0l-85.94944-85.94944a60.02176 60.02176 0 0 1-17.59232-42.65984c0-16.13824 6.24128-31.26784 17.61792-42.6496s26.48064-17.61792 42.6496-17.61792c16.1792 0 31.26784 6.24128 42.65984 17.61792l6.13888 6.13888 6.14912-6.13888a59.89888 59.89888 0 0 1 42.65984-17.61792c16.13312 0 31.27296 6.24128 42.65984 17.61792 11.38176 11.37664 17.53088 26.51136 17.53088 42.6496a59.78112 59.78112 0 0 1-17.54112 42.65984z" fill="#EB3E4B" p-id="1470"></path><path d="M282.9568 444.26752v0.05632c0.03072 55.1168 44.71808 99.78368 99.82976 99.78368-55.12192 0-99.82976-44.69248-99.82976-99.84z" fill="#D64755" p-id="1471"></path><path d="M208.06144 144.72704z" fill="#D64755" p-id="1472"></path><path d="M761.06752 219.41248z" fill="#575757" p-id="1473"></path><path d="M174.07488 197.80608zM172.30336 193.3056c0.16896 0.5376 0.38912 1.05472 0.57344 1.58208 0.22528 0.61952 0.42496 1.2544 0.67584 1.85856 0.1536 0.36352 0.34816 0.70144 0.51712 1.05984a37.38624 37.38624 0 0 0 33.98656 21.79584h549.1712a37.4272 37.4272 0 0 0 37.43232-37.44256 37.43744 37.43744 0 0 0-37.43232-37.43744H208.06144a37.43232 37.43232 0 0 0-37.44256 37.43232c0 1.80736 0.16896 3.56352 0.41984 5.30432 0.28672 2.00704 0.68096 3.96288 1.26464 5.84704z" fill="#D64755" p-id="1474"></path><path d="M195.584 580.96128z" fill="#F16458" p-id="1475"></path><path d="M614.48192 756.31104H233.02144v-184.22784c-6.35392 2.48832-12.99456 4.39808-19.79392 5.95968-1.5872 0.36864-3.16928 0.79872-4.76672 1.14688-0.74752 0.12288-1.52064 0.20992-2.26304 0.32256-3.49696 0.56832-7.01952 1.14688-10.60864 1.44896v0.03072c-4.13184 0.36864-8.26368 0.59904-12.4928 0.59904a136.9088 136.9088 0 0 1-24.96-2.3808v251.99104a37.44768 37.44768 0 0 0 37.4528 37.44768h493.12256c-35.79392-27.9296-62.34112-67.1488-74.22976-112.33792zM382.78656 544.10752c55.1424 0 99.82976-44.68736 99.85536-99.7888v-0.05632c0 55.15264-44.6976 99.84512-99.85536 99.84512z" fill="#D64755" p-id="1476"></path><path d="M866.45248 497.67424a99.24096 99.24096 0 0 0 15.5904-53.40672l-70.21056-187.21792h-0.01024l70.21056 187.21792a99.3792 99.3792 0 0 1-15.58016 53.40672z" fill="#575757" p-id="1477"></path><path d="M183.10656 544.10752h0.01024c55.13216 0 99.8144-44.68736 99.84-99.7888v-0.05632c-0.00512 55.14752-44.71296 99.84512-99.85024 99.84512z" fill="#D64755" p-id="1478"></path><path d="M715.70432 518.60992a209.52576 209.52576 0 0 1 102.38976-26.58304c16.65024 0 32.81408 1.9968 48.34304 5.64736a99.328 99.328 0 0 0 15.56992-53.40672l-70.20032-187.21792H153.47712L83.26656 444.26752c0 55.1424 44.69248 99.84 99.84 99.84 55.1424 0 99.84512-44.70272 99.84512-99.84v0c0 55.14752 44.70272 99.84 99.82976 99.84 55.15264 0 99.85536-44.70272 99.85536-99.84v0c0 48.24576 34.22208 88.50432 79.72352 97.81248 6.50752 1.3312 13.23008 2.02752 20.13184 2.02752 55.14752 0 99.84-44.70272 99.84-99.84 0 3.44576 0.16896 6.85568 0.53248 10.20928 2.57024 25.4464 14.78656 47.97952 32.83968 64.13312z" fill="#D64755" p-id="1479"></path><path d="M769.68448 580.9408a152.9088 152.9088 0 0 1-10.5984-1.44896c-0.75264-0.11264-1.53088-0.19968-2.28352-0.32256 0.74752 0.11776 1.53088 0.18944 2.26816 0.32256 3.49696 0.56832 7.04 1.11616 10.61376 1.44896z" fill="#575757" p-id="1480"></path></svg>