<?xml version="1.0" standalone="no"?><!DOCTYPE svg PUBLIC "-//W3C//DTD SVG 1.1//EN" "http://www.w3.org/Graphics/SVG/1.1/DTD/svg11.dtd"><svg t="1566644507947" class="icon" viewBox="0 0 1024 1024" version="1.1" xmlns="http://www.w3.org/2000/svg" p-id="1469" xmlns:xlink="http://www.w3.org/1999/xlink" width="200" height="200"><defs><style type="text/css"></style></defs><path d="M720.96768 936.42752H255.32416c-32.1536 0-58.20416-26.73152-58.20416-59.6992V100.6592C197.12 67.6864 223.17056 40.96 255.32416 40.96h465.64352c32.14336 0 58.19904 26.7264 58.19904 59.6992v776.07936c0.01536 32.96768-26.04544 59.68896-58.19904 59.68896z m-232.81664-59.6992c21.43232 0 38.79936-17.81248 38.79936-39.78752 0-21.98016-17.37216-39.79776-38.79936-39.79776-21.4272 0-38.8096 17.8176-38.8096 39.79776 0 21.97504 17.37728 39.78752 38.8096 39.78752z m48.49664-786.01728c0-5.49376-4.35712-9.95328-9.70752-9.95328H429.94176c-5.3504 0-9.7024 4.45952-9.7024 9.95328v9.94304c0 5.49376 4.352 9.95328 9.7024 9.95328h97.00864c5.3504 0 9.7024-4.45952 9.7024-9.95328v-9.94304h-0.00512z m184.32 49.74592H255.32416v616.8832h465.64352V140.45696z" fill="#2674AC" p-id="1470"></path><path d="M567.10144 332.88192c-3.30752 0.91136-6.26176 2.69312-8.96 5.38112L487.04512 409.3952 417.70496 340.096c-3.90656-3.88096-8.5248-5.82144-13.88032-5.82144-5.36576 0.03584-9.99424 1.97632-13.8752 5.84704-3.87584 3.85536-5.88288 8.57088-6.02624 14.09536-0.14848 5.49888 1.73056 10.2144 5.59616 14.09024l43.41248 43.35616-24.61696-0.4352c-5.66272 0.29696-10.4192 2.3808-14.30528 6.26688-3.87584 3.87584-5.81632 8.51456-5.81632 13.88032a21.4016 21.4016 0 0 0 1.5616 8.26368 20.48 20.48 0 0 0 4.24448 6.49216c1.80224 1.78176 3.968 3.19488 6.50752 4.23936a15.63136 15.63136 0 0 0 7.84384 1.12128l59.92448-0.01024v52.77696l-59.9296 0.04608a20.89984 20.89984 0 0 0-10.07104 2.45248 17.54624 17.54624 0 0 0-7.38304 7.39328 21.41696 21.41696 0 0 0-2.68288 10.2912c0.04096 1.26464 0.11776 2.53952 0.24576 3.79392 0.11776 1.37728 0.50176 2.6368 1.12128 3.81952s1.28512 2.30912 2.00704 3.35872c0.7424 1.05984 1.55136 2.02752 2.48832 2.91328 0.90112 0.90112 1.88928 1.72032 2.92864 2.4576 1.03936 0.74752 2.14528 1.44384 3.34336 2.0224 1.18784 0.5888 2.49856 0.96256 3.81952 1.11104 1.43872 0.16896 2.83648 0.39936 4.25984 0.68608l59.93984-0.03584 0.01536 63.51872c0.00512 5.38112 1.93536 9.99936 5.83168 13.87008 3.88608 3.85024 8.6528 5.78048 14.3104 5.80096s10.42944-1.93024 14.30016-5.82144c3.8912-3.8912 5.82656-8.50944 5.82656-13.88032l-0.03072-63.50848 59.93984-0.03072a23.01952 23.01952 0 0 0 10.28608-3.12832 20.736 20.736 0 0 0 7.15776-7.15776c1.80224-2.9696 2.69824-6.36928 2.67776-9.84576 0.31232-5.6832-1.57184-10.51648-5.59616-14.5408-4.00384-4.03456-8.8832-5.89312-14.54592-5.57568l-59.95008 0.0256-0.01024-52.78208 59.9296-0.03072a21.20704 21.20704 0 0 0 10.09152-2.46272 17.60256 17.60256 0 0 0 7.37792-7.40864c1.75104-3.14368 2.6624-6.69184 2.66752-10.2912-0.01536-5.37088-1.95584-9.98912-5.82144-13.86496-3.90144-3.85536-8.65792-5.94944-14.31552-6.23616l-26.8544-0.00512 44.70784-44.74368-0.06144-0.04096c3.8912-3.85536 5.90336-8.5504 6.05184-14.08512 0.13824-5.5296-1.73056-10.22464-5.61152-14.09536a20.21888 20.21888 0 0 0-9.40032-5.36576 19.70688 19.70688 0 0 0-10.23488 0z" fill="#2674AC" p-id="1471"></path></svg>