<?xml version="1.0" standalone="no"?><!DOCTYPE svg PUBLIC "-//W3C//DTD SVG 1.1//EN" "http://www.w3.org/Graphics/SVG/1.1/DTD/svg11.dtd"><svg t="1566826550839" class="icon" viewBox="0 0 1024 1024" version="1.1" xmlns="http://www.w3.org/2000/svg" p-id="7773" xmlns:xlink="http://www.w3.org/1999/xlink" width="64" height="64"><defs><style type="text/css"></style></defs><path d="M960 417.28c30.72-20.48 33.28-38.4 33.28-64V194.56c0-51.2-40.96-92.16-92.16-92.16H112.64C61.44 102.4 20.48 143.36 20.48 194.56v158.72c0 25.6 2.56 48.64 33.28 64 23.04 10.24 71.68 40.96 71.68 94.72 0 61.44-35.84 81.92-69.12 92.16l-2.56 2.56c-30.72 20.48-33.28 51.2-33.28 64v158.72c0 51.2 40.96 92.16 92.16 92.16h788.48c51.2 0 92.16-40.96 92.16-92.16v-158.72c0-33.28-10.24-46.08-33.28-64-53.76-28.16-71.68-51.2-71.68-92.16 0-46.08 15.36-66.56 71.68-97.28z m-281.6 81.92c0 15.36-12.8 25.6-25.6 25.6h-104.96v25.6h104.96c15.36 0 25.6 12.8 25.6 25.6v25.6c0 15.36-12.8 25.6-25.6 25.6h-104.96v79.36c0 15.36-12.8 25.6-25.6 25.6h-25.6c-15.36 0-25.6-12.8-25.6-25.6v-79.36h-104.96c-15.36 0-25.6-12.8-25.6-25.6v-25.6c0-15.36 12.8-25.6 25.6-25.6h104.96v-25.6h-104.96c-15.36 0-25.6-12.8-25.6-25.6v-25.6c0-15.36 12.8-25.6 25.6-25.6H435.2l-87.04-94.72c-10.24-10.24-10.24-25.6 0-35.84l17.92-17.92c10.24-10.24 28.16-10.24 35.84 0l110.08 117.76 110.08-117.76c10.24-10.24 28.16-10.24 35.84 0l17.92 17.92c10.24 10.24 10.24 25.6 0 35.84L588.8 448h69.12c15.36 0 25.6 12.8 25.6 25.6v25.6z m0 0" p-id="7774" fill="#FF4D39"></path></svg>